<svg xmlns="http://www.w3.org/2000/svg" width="980" height="520" viewBox="0 0 980 520">
<rect width="100%" height="100%" fill="#ffffff"/>
<text x="490.0" y="28" text-anchor="middle" font-family="Arial" font-size="18" font-weight="700">Wolf win rate by seer strategy</text>
<line x1="190.0" y1="55" x2="190.0" y2="465" stroke="#e5e7eb"/>
<text x="190.0" y="487" text-anchor="middle" font-family="Arial" font-size="11" fill="#4b5563">0</text>
<line x1="295.7" y1="55" x2="295.7" y2="465" stroke="#e5e7eb"/>
<text x="295.7" y="487" text-anchor="middle" font-family="Arial" font-size="11" fill="#4b5563">10</text>
<line x1="401.4" y1="55" x2="401.4" y2="465" stroke="#e5e7eb"/>
<text x="401.4" y="487" text-anchor="middle" font-family="Arial" font-size="11" fill="#4b5563">20</text>
<line x1="507.1" y1="55" x2="507.1" y2="465" stroke="#e5e7eb"/>
<text x="507.1" y="487" text-anchor="middle" font-family="Arial" font-size="11" fill="#4b5563">30</text>
<line x1="612.9" y1="55" x2="612.9" y2="465" stroke="#e5e7eb"/>
<text x="612.9" y="487" text-anchor="middle" font-family="Arial" font-size="11" fill="#4b5563">40</text>
<line x1="718.6" y1="55" x2="718.6" y2="465" stroke="#e5e7eb"/>
<text x="718.6" y="487" text-anchor="middle" font-family="Arial" font-size="11" fill="#4b5563">50</text>
<line x1="824.3" y1="55" x2="824.3" y2="465" stroke="#e5e7eb"/>
<text x="824.3" y="487" text-anchor="middle" font-family="Arial" font-size="11" fill="#4b5563">60</text>
<line x1="930.0" y1="55" x2="930.0" y2="465" stroke="#e5e7eb"/>
<text x="930.0" y="487" text-anchor="middle" font-family="Arial" font-size="11" fill="#4b5563">70</text>
<text x="178" y="88.3" text-anchor="end" font-family="Arial" font-size="12" fill="#111827">default</text>
<rect x="190" y="74.3" width="660.9" height="20" fill="#6b7280" opacity="0.80"/>
<line x1="834.7" y1="84.3" x2="867.2" y2="84.3" stroke="#111827" stroke-width="2"/>
<line x1="834.7" y1="78.3" x2="834.7" y2="90.3" stroke="#111827" stroke-width="2"/>
<line x1="867.2" y1="78.3" x2="867.2" y2="90.3" stroke="#111827" stroke-width="2"/>
<text x="856.9" y="88.3" font-family="Arial" font-size="11" fill="#111827">62.52</text>
<text x="178" y="146.9" text-anchor="end" font-family="Arial" font-size="12" fill="#111827">random</text>
<rect x="190" y="132.9" width="628.8" height="20" fill="#2563eb" opacity="0.80"/>
<line x1="792.0" y1="142.9" x2="845.6" y2="142.9" stroke="#111827" stroke-width="2"/>
<line x1="792.0" y1="136.9" x2="792.0" y2="148.9" stroke="#111827" stroke-width="2"/>
<line x1="845.6" y1="136.9" x2="845.6" y2="148.9" stroke="#111827" stroke-width="2"/>
<text x="824.8" y="146.9" font-family="Arial" font-size="11" fill="#111827">59.48</text>
<text x="178" y="205.4" text-anchor="end" font-family="Arial" font-size="12" fill="#111827">edge_first</text>
<rect x="190" y="191.4" width="619.1" height="20" fill="#dc2626" opacity="0.80"/>
<line x1="776.1" y1="201.4" x2="842.0" y2="201.4" stroke="#111827" stroke-width="2"/>
<line x1="776.1" y1="195.4" x2="776.1" y2="207.4" stroke="#111827" stroke-width="2"/>
<line x1="842.0" y1="195.4" x2="842.0" y2="207.4" stroke="#111827" stroke-width="2"/>
<text x="815.1" y="205.4" font-family="Arial" font-size="11" fill="#111827">58.56</text>
<text x="178" y="264.0" text-anchor="end" font-family="Arial" font-size="12" fill="#111827">inner_first</text>
<rect x="190" y="250.0" width="616.5" height="20" fill="#16a34a" opacity="0.80"/>
<line x1="770.3" y1="260.0" x2="842.8" y2="260.0" stroke="#111827" stroke-width="2"/>
<line x1="770.3" y1="254.0" x2="770.3" y2="266.0" stroke="#111827" stroke-width="2"/>
<line x1="842.8" y1="254.0" x2="842.8" y2="266.0" stroke="#111827" stroke-width="2"/>
<text x="812.5" y="264.0" font-family="Arial" font-size="11" fill="#111827">58.32</text>
<text x="178" y="322.6" text-anchor="end" font-family="Arial" font-size="12" fill="#111827">highest_p_wolf</text>
<rect x="190" y="308.6" width="688.4" height="20" fill="#7c3aed" opacity="0.80"/>
<line x1="852.3" y1="318.6" x2="904.5" y2="318.6" stroke="#111827" stroke-width="2"/>
<line x1="852.3" y1="312.6" x2="852.3" y2="324.6" stroke="#111827" stroke-width="2"/>
<line x1="904.5" y1="312.6" x2="904.5" y2="324.6" stroke="#111827" stroke-width="2"/>
<text x="884.4" y="322.6" font-family="Arial" font-size="11" fill="#111827">65.12</text>
<text x="178" y="381.1" text-anchor="end" font-family="Arial" font-size="12" fill="#111827">highest_suspicion</text>
<rect x="190" y="367.1" width="688.8" height="20" fill="#ea580c" opacity="0.80"/>
<line x1="866.7" y1="377.1" x2="890.9" y2="377.1" stroke="#111827" stroke-width="2"/>
<line x1="866.7" y1="371.1" x2="866.7" y2="383.1" stroke="#111827" stroke-width="2"/>
<line x1="890.9" y1="371.1" x2="890.9" y2="383.1" stroke="#111827" stroke-width="2"/>
<text x="884.8" y="381.1" font-family="Arial" font-size="11" fill="#111827">65.16</text>
<text x="178" y="439.7" text-anchor="end" font-family="Arial" font-size="12" fill="#111827">opposite_side</text>
<rect x="190" y="425.7" width="639.4" height="20" fill="#0891b2" opacity="0.80"/>
<line x1="804.5" y1="435.7" x2="854.2" y2="435.7" stroke="#111827" stroke-width="2"/>
<line x1="804.5" y1="429.7" x2="804.5" y2="441.7" stroke="#111827" stroke-width="2"/>
<line x1="854.2" y1="429.7" x2="854.2" y2="441.7" stroke="#111827" stroke-width="2"/>
<text x="835.4" y="439.7" font-family="Arial" font-size="11" fill="#111827">60.48</text>
<text x="560.0" y="510" text-anchor="middle" font-family="Arial" font-size="12" fill="#374151">Wolf win rate (%), lower favors village</text>
</svg>