<svg xmlns="http://www.w3.org/2000/svg" width="980" height="560" viewBox="0 0 980 560">
<rect width="100%" height="100%" fill="#ffffff"/>
<text x="24" y="36" font-family="Arial" font-size="20" font-weight="700" fill="#172033">Witch policy village win rate</text>
<text x="24" y="536" font-family="Arial" font-size="11" fill="#526070">Source: r61_witch_policy_summary.csv</text>
<text x="24" y="87" font-family="Arial" font-size="13" fill="#263445">reference</text>
<rect x="260.0" y="70" width="192.6" height="24" rx="3" fill="#2f6fbb"/>
<text x="460.6" y="87" font-family="Arial" font-size="13" fill="#263445">0.301</text>
<text x="24" y="125" font-family="Arial" font-size="13" fill="#263445">aggressive_full</text>
<rect x="260.0" y="108" width="225.3" height="24" rx="3" fill="#2f6fbb"/>
<text x="493.3" y="125" font-family="Arial" font-size="13" fill="#263445">0.352</text>
<text x="24" y="163" font-family="Arial" font-size="13" fill="#263445">save_aggressive_poison_conservative</text>
<rect x="260.0" y="146" width="203.5" height="24" rx="3" fill="#2f6fbb"/>
<text x="471.5" y="163" font-family="Arial" font-size="13" fill="#263445">0.318</text>
<text x="24" y="201" font-family="Arial" font-size="13" fill="#263445">save_conservative_poison_aggressive</text>
<rect x="260.0" y="184" width="175.4" height="24" rx="3" fill="#2f6fbb"/>
<text x="443.4" y="201" font-family="Arial" font-size="13" fill="#263445">0.274</text>
<text x="24" y="239" font-family="Arial" font-size="13" fill="#263445">conservative_full</text>
<rect x="260.0" y="222" width="128.6" height="24" rx="3" fill="#2f6fbb"/>
<text x="396.6" y="239" font-family="Arial" font-size="13" fill="#263445">0.201</text>
<text x="24" y="277" font-family="Arial" font-size="13" fill="#263445">risk_balanced</text>
<rect x="260.0" y="260" width="199.0" height="24" rx="3" fill="#2f6fbb"/>
<text x="467.0" y="277" font-family="Arial" font-size="13" fill="#263445">0.311</text>
</svg>
