<svg xmlns="http://www.w3.org/2000/svg" width="980" height="560" viewBox="0 0 980 560">
<rect width="100%" height="100%" fill="#ffffff"/>
<text x="24" y="36" font-family="Arial" font-size="20" font-weight="700" fill="#172033">Villager policy village win rate</text>
<text x="24" y="536" font-family="Arial" font-size="11" fill="#526070">Source: r61_villager_policy_summary.csv</text>
<text x="24" y="87" font-family="Arial" font-size="13" fill="#263445">reference</text>
<rect x="260.0" y="70" width="186.2" height="24" rx="3" fill="#2f6fbb"/>
<text x="454.2" y="87" font-family="Arial" font-size="13" fill="#263445">0.291</text>
<text x="24" y="125" font-family="Arial" font-size="13" fill="#263445">random_vote</text>
<rect x="260.0" y="108" width="147.2" height="24" rx="3" fill="#2f6fbb"/>
<text x="415.2" y="125" font-family="Arial" font-size="13" fill="#263445">0.23</text>
<text x="24" y="163" font-family="Arial" font-size="13" fill="#263445">suspicion_only</text>
<rect x="260.0" y="146" width="187.5" height="24" rx="3" fill="#2f6fbb"/>
<text x="455.5" y="163" font-family="Arial" font-size="13" fill="#263445">0.293</text>
<text x="24" y="201" font-family="Arial" font-size="13" fill="#263445">p_wolf_only</text>
<rect x="260.0" y="184" width="153.6" height="24" rx="3" fill="#2f6fbb"/>
<text x="421.6" y="201" font-family="Arial" font-size="13" fill="#263445">0.24</text>
<text x="24" y="239" font-family="Arial" font-size="13" fill="#263445">trust_weighted</text>
<rect x="260.0" y="222" width="257.3" height="24" rx="3" fill="#2f6fbb"/>
<text x="525.3" y="239" font-family="Arial" font-size="13" fill="#263445">0.402</text>
<text x="24" y="277" font-family="Arial" font-size="13" fill="#263445">guarded_herding</text>
<rect x="260.0" y="260" width="213.8" height="24" rx="3" fill="#2f6fbb"/>
<text x="481.8" y="277" font-family="Arial" font-size="13" fill="#263445">0.334</text>
</svg>
